<svg width="852" height="813" viewBox="0 0 852 813" fill="none" xmlns="http://www.w3.org/2000/svg">
<path d="M40.1524 283.045H0.0214451C-0.436779 246.049 6.45243 209.331 20.2898 175.018C34.1271 140.705 54.6373 109.479 80.6316 83.1517C106.626 56.8239 137.587 35.9173 171.721 21.6437C205.855 7.37009 242.483 0.013403 279.481 1.82971e-05C316.479 -0.0133664 353.112 7.31682 387.256 21.5657C421.4 35.8146 452.377 56.6988 478.39 83.0078C504.403 109.317 524.936 140.527 538.798 174.83C552.66 209.133 559.576 245.847 559.145 282.842H519.014C519.412 251.138 513.51 219.67 501.65 190.265C489.79 160.86 472.208 134.103 449.924 111.547C427.641 88.9909 401.099 71.0852 371.84 58.8687C342.581 46.6523 311.188 40.3685 279.481 40.3818C247.774 40.3952 216.385 46.7056 187.137 58.9467C157.888 71.1879 131.362 89.116 109.097 111.691C86.8326 134.265 69.2732 161.037 57.4379 190.452C45.6026 219.868 39.7271 251.34 40.1524 283.045Z" fill="#E8E8E8"/>
<path d="M40.193 282.235H0.0619812V812.919H40.193V282.235Z" fill="#E8E8E8"/>
<path d="M559.145 282.276H519.014V812.959H559.145V282.276Z" fill="#E8E8E8"/>
<path d="M677.393 282.923H637.222C638.074 209.361 667.887 139.098 720.196 87.3691C772.506 35.6398 843.096 6.61277 916.664 6.58084C990.231 6.5489 1060.85 35.5147 1113.2 87.1985C1165.56 138.882 1195.43 209.119 1196.35 282.68H1156.21C1156.18 219.185 1130.93 158.303 1086.01 113.427C1041.09 68.5519 980.178 43.3592 916.682 43.3914C853.187 43.4236 792.305 68.678 747.429 113.599C702.554 158.52 677.361 219.428 677.393 282.923Z" fill="#E8E8E8"/>
<path d="M677.353 282.074H637.222V812.96H677.353V282.074Z" fill="#E8E8E8"/>
</svg>
