<svg width="11" height="12" viewBox="0 0 11 12" fill="none" xmlns="http://www.w3.org/2000/svg">
<path d="M6.64 11.192C5.34933 11.192 4.21867 10.8347 3.248 10.12C2.288 9.39467 1.65333 8.424 1.344 7.208H0.496V6.376H1.184C1.16267 6.07733 1.152 5.84267 1.152 5.672C1.152 5.50133 1.16267 5.256 1.184 4.936H0.496V4.104H1.344C1.664 2.90933 2.304 1.95467 3.264 1.24C4.23467 0.514666 5.36 0.151999 6.64 0.151999C8.34667 0.151999 9.696 0.856 10.688 2.264L9.568 2.888C9.25867 2.42933 8.84267 2.056 8.32 1.768C7.79733 1.48 7.23733 1.336 6.64 1.336C5.73333 1.336 4.93333 1.58667 4.24 2.088C3.54667 2.58933 3.056 3.26133 2.768 4.104H7.616V4.936H2.576C2.544 5.18133 2.528 5.42667 2.528 5.672C2.528 5.91733 2.544 6.152 2.576 6.376H7.616V7.208H2.768C3.04533 8.06133 3.53067 8.744 4.224 9.256C4.928 9.75733 5.73333 10.008 6.64 10.008C7.23733 10.008 7.79733 9.86933 8.32 9.592C8.84267 9.304 9.25867 8.92533 9.568 8.456L10.704 9.08C9.66933 10.488 8.31467 11.192 6.64 11.192Z" fill="black"/>
</svg>
