<svg width="32" height="32" viewBox="0 0 32 32" fill="none" xmlns="http://www.w3.org/2000/svg">
<g clip-path="url(#clip0_418_6142)">
<path d="M15.8 25.6C15.6 25.6 15.3 25.5 15.1 25.4C12.5 24 3.79997 19.1 3.99997 12.8C3.99997 12.7 3.99997 12.6 3.99997 12.6V12.4C3.99997 8.9 6.89997 6 10.4 6H10.5H10.7C12.7 6 14.6 6.9 15.8 8.5C17 6.9 18.9 6 20.9 6H21.1H21.2C24.7 6 27.6 8.9 27.6 12.4V12.6C27.6 12.7 27.6 12.8 27.6 12.8C27.8 19.2 18.4 24.4 16.5 25.4C16.3 25.5 16 25.6 15.8 25.6ZM10.5 8C7.99997 8 5.99997 10 5.99997 12.4V12.5C5.99997 12.6 5.99997 12.8 5.99997 12.9C5.79997 17.9 14 22.5 15.8 23.5C17.6 22.5 25.8 17.9 25.6 12.9C25.6 12.8 25.6 12.7 25.6 12.5V12.4C25.6 10 23.6 8 21.2 8H20.9C19.1 8 17.4 9.1 16.7 10.8L15.8 13L14.9 10.8C14.2 9.1 12.5 8 10.7 8H10.5Z" fill="black"/>
</g>
<defs>
<clipPath id="clip0_418_6142">
<rect width="23.6" height="19.6" fill="white" transform="translate(4 6)"/>
</clipPath>
</defs>
</svg>
