<svg width="29" height="29" viewBox="0 0 29 29" fill="none" xmlns="http://www.w3.org/2000/svg">
<g id="Group 40">
<path id="Vector" d="M27.9327 8.23482C27.8671 6.74657 27.6264 5.72342 27.2817 4.83684C26.926 3.89576 26.3788 3.05322 25.662 2.35281C24.9616 1.64149 24.1135 1.08877 23.1833 0.738671C22.2916 0.393915 21.2738 0.153249 19.7855 0.0876317C18.2862 0.0164577 17.8102 0 14.0074 0C10.2046 0 9.72861 0.0164577 8.23481 0.0820746C6.74657 0.147692 5.72342 0.388572 4.83706 0.733114C3.89576 1.08877 3.05322 1.63593 2.3528 2.35281C1.64149 3.05322 1.08898 3.90132 0.738671 4.8315C0.393915 5.72342 0.153249 6.74102 0.0876317 8.22926C0.0164576 9.72862 0 10.2046 0 14.0074C0 17.8102 0.0164576 18.2862 0.0820746 19.78C0.147691 21.2682 0.388572 22.2914 0.733328 23.178C1.08898 24.119 1.64149 24.9616 2.3528 25.662C3.05322 26.3733 3.90132 26.926 4.8315 27.2761C5.72342 27.6209 6.74101 27.8615 8.22947 27.9272C9.72306 27.993 10.1993 28.0092 14.002 28.0092C17.8048 28.0092 18.2808 27.993 19.7746 27.9272C21.2629 27.8615 22.286 27.6209 23.1724 27.2761C25.0548 26.5484 26.543 25.0601 27.2708 23.178C27.6153 22.286 27.8562 21.2682 27.9218 19.78C27.9874 18.2862 28.0039 17.8102 28.0039 14.0074C28.0039 10.2046 27.9983 9.72862 27.9327 8.23482ZM25.4104 19.6705C25.3501 21.0385 25.1204 21.7771 24.9289 22.2696C24.4582 23.4898 23.4898 24.4582 22.2696 24.9289C21.7771 25.1204 21.0331 25.3501 19.6705 25.4102C18.1932 25.476 17.7501 25.4923 14.0129 25.4923C10.2758 25.4923 9.82715 25.476 8.35515 25.4102C6.98724 25.3501 6.24857 25.1204 5.75612 24.9289C5.1489 24.7045 4.59618 24.3488 4.14754 23.8837C3.68245 23.4295 3.3268 22.8824 3.10238 22.2751C2.91087 21.7827 2.6811 21.0385 2.62104 19.6761C2.55521 18.1988 2.53897 17.7555 2.53897 14.0183C2.53897 10.2811 2.55521 9.83249 2.62104 8.36071C2.6811 6.9928 2.91087 6.25413 3.10238 5.76168C3.3268 5.15424 3.68245 4.60173 4.1531 4.15289C4.60708 3.6878 5.15424 3.33214 5.76168 3.10793C6.25412 2.91643 6.99835 2.68666 8.3607 2.62639C9.83805 2.56077 10.2813 2.54431 14.0183 2.54431C17.761 2.54431 18.2041 2.56077 19.6761 2.62639C21.044 2.68666 21.7827 2.91643 22.2751 3.10793C22.8823 3.33214 23.4351 3.6878 23.8837 4.15289C24.3488 4.60708 24.7044 5.15424 24.9289 5.76168C25.1204 6.25413 25.3501 6.99814 25.4104 8.36071C25.476 9.83805 25.4925 10.2811 25.4925 14.0183C25.4925 17.7555 25.476 18.1932 25.4104 19.6705Z" fill="white"/>
<path id="Vector_2" d="M14.0074 6.81226C10.0352 6.81226 6.81223 10.035 6.81223 14.0075C6.81223 17.98 10.0352 21.2027 14.0074 21.2027C17.9799 21.2027 21.2026 17.98 21.2026 14.0075C21.2026 10.035 17.9799 6.81226 14.0074 6.81226ZM14.0074 18.6748C11.4304 18.6748 9.34008 16.5847 9.34008 14.0075C9.34008 11.4302 11.4304 9.34011 14.0074 9.34011C16.5847 9.34011 18.6748 11.4302 18.6748 14.0075C18.6748 16.5847 16.5847 18.6748 14.0074 18.6748V18.6748Z" fill="white"/>
<path id="Vector_3" d="M23.167 6.52765C23.167 7.45526 22.4149 8.2074 21.4871 8.2074C20.5594 8.2074 19.8073 7.45526 19.8073 6.52765C19.8073 5.59982 20.5594 4.8479 21.4871 4.8479C22.4149 4.8479 23.167 5.59982 23.167 6.52765V6.52765Z" fill="white"/>
</g>
</svg>
