<svg width="24" height="20" viewBox="0 0 24 20" fill="none" xmlns="http://www.w3.org/2000/svg">
<path d="M11.8 19.6C11.6 19.6 11.3 19.5 11.1 19.4C8.50001 18 -0.199995 13.1 4.92088e-06 6.8C4.92088e-06 6.7 4.92088e-06 6.6 4.92088e-06 6.6V6.4C4.92088e-06 2.9 2.9 0 6.4 0H6.5H6.7C8.7 0 10.6 0.9 11.8 2.5C13 0.9 14.9 0 16.9 0H17.1H17.2C20.7 0 23.6 2.9 23.6 6.4V6.6C23.6 6.7 23.6 6.8 23.6 6.8C23.8 13.2 14.4 18.4 12.5 19.4C12.3 19.5 12 19.6 11.8 19.6ZM6.5 2C4 2 2.00001 4 2.00001 6.4V6.5C2.00001 6.6 2.00001 6.8 2.00001 6.9C1.8 11.9 10 16.5 11.8 17.5C13.6 16.5 21.8 11.9 21.6 6.9C21.6 6.8 21.6 6.7 21.6 6.5V6.4C21.6 4 19.6 2 17.2 2H16.9C15.1 2 13.4 3.1 12.7 4.8L11.8 7L10.9 4.8C10.2 3.1 8.5 2 6.7 2H6.5Z" fill="black"/>
</svg>
