<svg width="91" height="87" viewBox="0 0 91 87" fill="none" xmlns="http://www.w3.org/2000/svg">
<path d="M3.05326 21.509H0.00163072C-0.0332135 18.6977 0.490654 15.9074 1.54287 13.2999C2.59509 10.6924 4.15472 8.31951 6.13138 6.31882C8.10803 4.31813 10.4624 2.72941 13.058 1.64474C15.6536 0.560065 18.4388 0.00101852 21.2522 1.39042e-06C24.0656 -0.00101574 26.8513 0.556016 29.4476 1.63881C32.044 2.72161 34.3995 4.30863 36.3777 6.30789C38.3558 8.30715 39.9171 10.6789 40.9712 13.2856C42.0253 15.8924 42.5512 18.6823 42.5184 21.4936H39.4668C39.4971 19.0843 39.0483 16.6931 38.1464 14.4585C37.2445 12.224 35.9076 10.1907 34.2131 8.47661C32.5186 6.76255 30.5003 5.40187 28.2754 4.47352C26.0505 3.54518 23.6633 3.06766 21.2522 3.06868C18.8412 3.0697 16.4543 3.54923 14.2302 4.47945C12.0061 5.40968 9.98898 6.77206 8.29595 8.48755C6.60291 10.203 5.26766 12.2375 4.36768 14.4728C3.46771 16.7081 3.02092 19.0997 3.05326 21.509Z" fill="#1A1A18"/>
<path d="M3.05634 21.4473H0.00470734V61.7747H3.05634V21.4473Z" fill="#1A1A18"/>
<path d="M42.5184 21.4507H39.4668V61.7781H42.5184V21.4507Z" fill="#1A1A18"/>
<path d="M51.5103 21.4997H48.4555C48.5204 15.9095 50.7874 10.5702 54.7651 6.63922C58.7428 2.70824 64.1106 0.502429 69.7048 0.500002C75.299 0.497575 80.6688 2.69873 84.6499 6.62626C88.631 10.5538 90.9026 15.8912 90.9723 21.4812H87.9207C87.9182 16.6561 85.9978 12.0296 82.582 8.61943C79.1661 5.20928 74.5346 3.29485 69.7062 3.29729C64.8779 3.29974 60.2483 5.21886 56.8359 8.63247C53.4235 12.0461 51.5078 16.6746 51.5103 21.4997Z" fill="#1A1A18"/>
<path d="M90.9723 21.4292H87.9207V61.7813H90.9723V21.4292Z" fill="#1A1A18"/>
<path d="M51.5072 21.4351H48.4555V61.7779H51.5072V21.4351Z" fill="#1A1A18"/>
<path d="M22.7658 77.0044C22.0514 77.0044 21.353 76.7926 20.7591 76.3959C20.1651 75.9992 19.7022 75.4353 19.4289 74.7757C19.1557 74.116 19.0843 73.3902 19.224 72.69C19.3636 71.9898 19.7078 71.3468 20.2132 70.8421C20.7186 70.3375 21.3624 69.994 22.0632 69.8551C22.7639 69.7162 23.4902 69.7881 24.15 70.0617C24.8099 70.3354 25.3737 70.7984 25.7702 71.3924C26.1667 71.9863 26.378 72.6844 26.3773 73.3983C26.3765 74.355 25.9957 75.2722 25.3185 75.9484C24.6413 76.6245 23.7231 77.0044 22.7658 77.0044ZM22.7658 70.5485C22.1994 70.5485 21.6457 70.7164 21.1747 71.0309C20.7037 71.3454 20.3366 71.7924 20.1199 72.3154C19.9031 72.8383 19.8464 73.4138 19.9569 73.969C20.0674 74.5242 20.3402 75.0342 20.7407 75.4344C21.1412 75.8347 21.6515 76.1073 22.2071 76.2177C22.7627 76.3281 23.3385 76.2715 23.8618 76.0548C24.3852 75.8382 24.8325 75.4714 25.1472 75.0007C25.4619 74.53 25.6298 73.9767 25.6298 73.4106C25.631 73.0338 25.5579 72.6605 25.4145 72.3121C25.2712 71.9636 25.0605 71.6468 24.7944 71.3798C24.5284 71.1128 24.2123 70.9008 23.8642 70.7561C23.5161 70.6114 23.1429 70.5366 22.7658 70.5362V70.5485Z" fill="#1A1A18"/>
<path d="M39.3899 77.0078H34.4156V69.7896H35.1569V76.2669H39.3899V77.0078Z" fill="#1A1A18"/>
<path d="M0.140055 72.4454V72.4177C0.122875 72.0639 0.177777 71.7103 0.301431 71.3783C0.425085 71.0463 0.614915 70.7429 0.859413 70.4864C1.10391 70.23 1.39798 70.0258 1.7238 69.8863C2.04962 69.7467 2.40039 69.6748 2.75486 69.6748C3.10933 69.6748 3.46011 69.7467 3.78592 69.8863C4.11174 70.0258 4.40581 70.23 4.65031 70.4864C4.89481 70.7429 5.08464 71.0463 5.20829 71.3783C5.33195 71.7103 5.38685 72.0639 5.36967 72.4177H4.61599C4.62621 72.1661 4.58544 71.915 4.49612 71.6795C4.40681 71.444 4.2708 71.229 4.09626 71.0474C3.92172 70.8657 3.71224 70.7212 3.48041 70.6225C3.24858 70.5237 2.99917 70.4728 2.74717 70.4728C2.49517 70.4728 2.24576 70.5237 2.01393 70.6225C1.7821 70.7212 1.57263 70.8657 1.39808 71.0474C1.22354 71.229 1.08753 71.444 0.998218 71.6795C0.908906 71.915 0.868135 72.1661 0.878353 72.4177L0.140055 72.4454Z" fill="#1A1A18"/>
<path d="M0.887588 72.4116H0.14006V76.983H0.887588V72.4116Z" fill="#1A1A18"/>
<path d="M5.37275 72.4116H4.62522V76.983H5.37275V72.4116Z" fill="#1A1A18"/>
<path d="M10.787 72.4518L10.4116 72.4303C10.4219 72.1786 10.3811 71.9275 10.2918 71.6921C10.2025 71.4566 10.0665 71.2415 9.89192 71.0599C9.71737 70.8782 9.5079 70.7337 9.27607 70.635C9.04424 70.5363 8.79483 70.4854 8.54283 70.4854C8.29083 70.4854 8.04142 70.5363 7.80959 70.635C7.57776 70.7337 7.36828 70.8782 7.19374 71.0599C7.0192 71.2415 6.88319 71.4566 6.79388 71.6921C6.70456 71.9275 6.66379 72.1786 6.67401 72.4303H5.92648C5.95907 71.7592 6.24878 71.1263 6.73558 70.6629C7.22238 70.1994 7.86895 69.9409 8.54129 69.9409C9.21363 69.9409 9.8602 70.1994 10.347 70.6629C10.8338 71.1263 11.1235 71.7592 11.1561 72.4303L10.787 72.4518Z" fill="#1A1A18"/>
<path d="M11.1592 72.4238H10.4116V76.9952H11.1592V72.4238Z" fill="#1A1A18"/>
<path d="M6.67401 72.4238H5.92648V76.9952H6.67401V72.4238Z" fill="#1A1A18"/>
<path d="M65.338 77.0109H60.3237V69.7681H61.0681V76.2669H65.338V77.0109Z" fill="#1A1A18"/>
<path d="M65.3195 72.999H60.6836V73.743H65.3195V72.999Z" fill="#1A1A18"/>
<path d="M65.3195 69.7681H60.6836V70.512H65.3195V69.7681Z" fill="#1A1A18"/>
<path d="M90.8923 69.7681H85.8811V70.5182H90.8923V69.7681Z" fill="#1A1A18"/>
<path d="M88.7605 69.8325H88.0099V76.9954H88.7605V69.8325Z" fill="#1A1A18"/>
<path d="M8.99305 82.1768L5.8922 82.1816L5.89337 82.9225L8.99421 82.9177L8.99305 82.1768Z" fill="#1A1A18"/>
<path fill-rule="evenodd" clip-rule="evenodd" d="M8.449 81.57C8.3299 81.1939 8.13076 80.8481 7.86525 80.5562C7.59975 80.2644 7.27417 80.0334 6.91088 79.8792C6.75458 79.8099 6.59176 79.7563 6.42483 79.7193C6.21394 79.6705 5.99836 79.6447 5.7819 79.6425C5.03041 79.6449 4.3104 79.9443 3.77902 80.4753C3.24764 81.0064 2.94803 81.7259 2.9456 82.4769C2.94177 83.2279 3.23603 83.9498 3.76388 84.4843C4.29509 85.0151 5.01532 85.3136 5.76651 85.3144C6.52013 85.3152 7.2433 85.0172 7.77734 84.4858C8.31138 83.9545 8.61267 83.2331 8.61512 82.48V82.1725H9.35649V82.48C9.35609 82.95 9.26294 83.4153 9.08239 83.8493C8.90184 84.2834 8.63742 84.6776 8.30427 85.0093C7.97111 85.3411 7.57576 85.604 7.14083 85.783C6.7059 85.9619 6.23993 86.0534 5.76959 86.0522C5.30019 86.0528 4.83532 85.9605 4.40182 85.7806C3.96833 85.6007 3.57481 85.3367 3.24399 85.0039C2.57433 84.3331 2.19819 83.4244 2.19807 82.4769C2.1997 81.5302 2.57693 80.6229 3.24703 79.9538C3.91713 79.2847 4.82541 78.9085 5.77267 78.9077C6.04483 78.9073 6.31618 78.9372 6.58172 78.9969C6.79222 79.0468 6.99805 79.1147 7.19697 79.1998C7.6955 79.4119 8.13833 79.7362 8.49101 80.1473C8.84368 80.5584 9.0967 81.0452 9.23036 81.57H8.449Z" fill="#1A1A18"/>
<path d="M50.5782 73.263V72.5375C50.849 72.5375 51.1088 72.43 51.3003 72.2386C51.4919 72.0472 51.5995 71.7876 51.5995 71.5169C51.5995 71.2462 51.4919 70.9866 51.3003 70.7952C51.1088 70.6038 50.849 70.4962 50.5782 70.4962V69.7677C50.814 69.7578 51.0494 69.7956 51.2702 69.879C51.491 69.9624 51.6926 70.0895 51.863 70.2528C52.0334 70.4161 52.1689 70.6121 52.2616 70.829C52.3542 71.046 52.4019 71.2795 52.4019 71.5153C52.4019 71.7512 52.3542 71.9847 52.2616 72.2016C52.1689 72.4186 52.0334 72.6146 51.863 72.7779C51.6926 72.9411 51.491 73.0683 51.2702 73.1517C51.0494 73.235 50.814 73.2729 50.5782 73.263Z" fill="#1A1A18"/>
<path d="M50.5782 69.7681H47.6988V70.4936H50.5782V69.7681Z" fill="#1A1A18"/>
<path d="M50.5782 72.5376H47.6988V73.2631H50.5782V72.5376Z" fill="#1A1A18"/>
<path d="M48.0741 69.771H47.3327V77.0015H48.0741V69.771Z" fill="#1A1A18"/>
<path d="M50.5782 77.0045V76.2821C50.716 76.2897 50.8539 76.2691 50.9835 76.2216C51.113 76.1742 51.2316 76.1008 51.3318 76.006C51.4321 75.9112 51.5119 75.7969 51.5665 75.6702C51.621 75.5436 51.6492 75.4071 51.6492 75.2692C51.6492 75.1312 51.621 74.9948 51.5665 74.8681C51.5119 74.7414 51.4321 74.6271 51.3318 74.5323C51.2316 74.4375 51.113 74.3641 50.9835 74.3167C50.8539 74.2692 50.716 74.2486 50.5782 74.2562V73.5338C50.8124 73.5239 51.0461 73.5615 51.2654 73.6443C51.4847 73.727 51.6849 73.8533 51.8541 74.0154C52.0233 74.1775 52.158 74.3722 52.25 74.5876C52.3419 74.8031 52.3893 75.0349 52.3893 75.2692C52.3893 75.5034 52.3419 75.7352 52.25 75.9507C52.158 76.1661 52.0233 76.3608 51.8541 76.5229C51.6849 76.685 51.4847 76.8113 51.2654 76.894C51.0461 76.9768 50.8124 77.0144 50.5782 77.0045Z" fill="#1A1A18"/>
<path d="M50.5782 73.5337H47.6988V74.2561H50.5782V73.5337Z" fill="#1A1A18"/>
<path d="M50.5782 76.2822H47.6988V77.0047H50.5782V76.2822Z" fill="#1A1A18"/>
<path d="M39.3776 86.0703H34.4063V78.8521H35.1477V85.3294H39.3776V86.0703Z" fill="#1A1A18"/>
<path d="M24.5101 81.4746V81.453C24.5101 80.9614 24.3146 80.4899 23.9668 80.1422C23.6189 79.7946 23.1471 79.5993 22.6551 79.5993C22.1631 79.5993 21.6913 79.7946 21.3434 80.1422C20.9956 80.4899 20.8001 80.9614 20.8001 81.453H20.0587C20.0587 80.7649 20.3323 80.1049 20.8192 79.6184C21.3061 79.1318 21.9665 78.8584 22.6551 78.8584C23.3437 78.8584 24.0041 79.1318 24.491 79.6184C24.9779 80.1049 25.2514 80.7649 25.2514 81.453L24.5101 81.4746Z" fill="#1A1A18"/>
<path d="M25.2514 81.4497H24.5101V85.9872H25.2514V81.4497Z" fill="#1A1A18"/>
<path d="M20.8001 81.4497H20.0587V85.9872H20.8001V81.4497Z" fill="#1A1A18"/>
<path d="M24.5865 82.1643L20.6674 82.1704L20.6686 82.9359L24.5877 82.9297L24.5865 82.1643Z" fill="#1A1A18"/>
<path d="M52.3378 86.0703H47.3666V78.8521H48.1079V85.3294H52.3378V86.0703Z" fill="#1A1A18"/>
<path d="M65.3349 86.0703H60.3206V78.8306H61.0651V85.3264H65.3349V86.0703Z" fill="#1A1A18"/>
<path d="M65.3164 82.0615H60.6805V82.8055H65.3164V82.0615Z" fill="#1A1A18"/>
<path d="M65.3164 78.8306H60.6805V79.5745H65.3164V78.8306Z" fill="#1A1A18"/>
<path d="M76.4371 73.263V72.5375C76.7079 72.5375 76.9677 72.43 77.1592 72.2386C77.3508 72.0472 77.4584 71.7876 77.4584 71.5169C77.4584 71.2462 77.3508 70.9866 77.1592 70.7952C76.9677 70.6038 76.7079 70.4962 76.4371 70.4962V69.7677C76.6729 69.7578 76.9083 69.7956 77.1291 69.879C77.3499 69.9624 77.5515 70.0895 77.7219 70.2528C77.8923 70.4161 78.0278 70.6121 78.1205 70.829C78.2131 71.046 78.2608 71.2795 78.2608 71.5153C78.2608 71.7512 78.2131 71.9847 78.1205 72.2016C78.0278 72.4186 77.8923 72.6146 77.7219 72.7779C77.5515 72.9411 77.3499 73.0683 77.1291 73.1517C76.9083 73.235 76.6729 73.2729 76.4371 73.263Z" fill="#1A1A18"/>
<path d="M76.4401 69.7681H73.5608V70.4936H76.4401V69.7681Z" fill="#1A1A18"/>
<path d="M76.4401 72.5376H73.5608V73.2631H76.4401V72.5376Z" fill="#1A1A18"/>
<path d="M73.933 69.771H73.1916V77.0107H73.933V69.771Z" fill="#1A1A18"/>
<path d="M78.209 76.9984H77.4861V75.2123C77.4672 74.9489 77.3478 74.7029 77.1526 74.5249C76.9574 74.347 76.7012 74.2508 76.4371 74.2562V73.5338C76.8882 73.5291 77.3238 73.6984 77.6532 74.0064C77.9826 74.3145 78.1806 74.7376 78.2059 75.1877C78.209 75.2246 78.209 76.98 78.209 76.9984Z" fill="#1A1A18"/>
<path d="M76.4401 73.5337H73.5608V74.2561H76.4401V73.5337Z" fill="#1A1A18"/>
<path d="M76.4309 82.332V81.5942C76.7018 81.5942 76.9615 81.4866 77.1531 81.2952C77.3446 81.1038 77.4522 80.8442 77.4522 80.5735C77.4522 80.3028 77.3446 80.0432 77.1531 79.8518C76.9615 79.6604 76.7018 79.5529 76.4309 79.5529V78.8243C76.6667 78.8144 76.9021 78.8523 77.1229 78.9357C77.3437 79.019 77.5454 79.1462 77.7158 79.3094C77.8861 79.4727 78.0217 79.6687 78.1143 79.8857C78.2069 80.1026 78.2546 80.3361 78.2546 80.572C78.2546 80.8079 78.2069 81.0413 78.1143 81.2583C78.0217 81.4752 77.8861 81.6713 77.7158 81.8345C77.5454 81.9978 77.3437 82.1249 77.1229 82.2083C76.9021 82.2917 76.6667 82.3295 76.4309 82.3197V82.332Z" fill="#1A1A18"/>
<path d="M76.4309 78.8247H73.5515V79.5502H76.4309V78.8247Z" fill="#1A1A18"/>
<path d="M76.4309 81.5942H73.5515V82.3197H76.4309V81.5942Z" fill="#1A1A18"/>
<path d="M73.9268 78.8276H73.1855V86.0705H73.9268V78.8276Z" fill="#1A1A18"/>
<path d="M78.2028 86.0551H77.4799V84.2689C77.461 84.0056 77.3417 83.7595 77.1464 83.5816C76.9512 83.4037 76.6951 83.3075 76.4309 83.3129V82.5904C76.882 82.5858 77.3176 82.7551 77.647 83.0631C77.9765 83.3711 78.1744 83.7942 78.1997 84.2444C78.2028 84.2812 78.2028 86.0366 78.2028 86.0551Z" fill="#1A1A18"/>
<path d="M76.4309 82.5903H73.5515V83.3128H76.4309V82.5903Z" fill="#1A1A18"/>
<path d="M88.5728 82.79H88.1822V86.0487H88.5728V82.79Z" fill="#1A1A18"/>
<path d="M88.4036 83.0424C87.7148 83.0416 87.0544 82.7676 86.5676 82.2805C86.0807 81.7934 85.8073 81.1331 85.8073 80.4447H86.5487C86.5487 80.9364 86.7441 81.4079 87.092 81.7555C87.4399 82.1032 87.9117 82.2985 88.4036 82.2985C88.8956 82.2985 89.3674 82.1032 89.7153 81.7555C90.0632 81.4079 90.2586 80.9364 90.2586 80.4447L91 80.4263V80.4447C90.9992 81.1329 90.7255 81.7927 90.2388 82.2796C89.7522 82.7665 89.0923 83.0408 88.4036 83.0424Z" fill="#1A1A18"/>
<path d="M91 78.8306H90.2586V80.4507H91V78.8306Z" fill="#1A1A18"/>
<path d="M86.5487 78.8276H85.8073V80.4508H86.5487V78.8276Z" fill="#1A1A18"/>
</svg>
