<svg width="19" height="20" viewBox="0 0 19 20" fill="none" xmlns="http://www.w3.org/2000/svg">
<path d="M18.9429 18.5624L12.7751 12.0699C13.7322 10.7675 14.2499 9.17496 14.2499 7.49997C14.2499 5.49498 13.5066 3.61498 12.1623 2.19749C10.8181 0.779996 9.02734 0 7.12497 0C5.2226 0 3.43186 0.782496 2.08762 2.19749C0.740997 3.61248 0 5.49498 0 7.49997C0 9.50246 0.743372 11.3874 2.08762 12.8024C3.43186 14.2199 5.22023 14.9999 7.12497 14.9999C8.71621 14.9999 10.2267 14.4549 11.4641 13.4499L17.6319 19.9399C17.65 19.959 17.6715 19.9741 17.6951 19.9844C17.7188 19.9947 17.7441 20 17.7697 20C17.7953 20 17.8206 19.9947 17.8442 19.9844C17.8679 19.9741 17.8893 19.959 17.9074 19.9399L18.9429 18.8524C18.961 18.8334 18.9754 18.8108 18.9852 18.7859C18.995 18.761 19 18.7343 19 18.7074C19 18.6805 18.995 18.6538 18.9852 18.6289C18.9754 18.6041 18.961 18.5815 18.9429 18.5624ZM10.887 11.46C9.87996 12.5174 8.54521 13.0999 7.12497 13.0999C5.70473 13.0999 4.36998 12.5174 3.36299 11.46C2.35837 10.4 1.80499 8.99496 1.80499 7.49997C1.80499 6.00497 2.35837 4.59748 3.36299 3.53998C4.36998 2.48249 5.70473 1.89999 7.12497 1.89999C8.54521 1.89999 9.88233 2.47999 10.887 3.53998C11.8916 4.59998 12.4449 6.00497 12.4449 7.49997C12.4449 8.99496 11.8916 10.4025 10.887 11.46Z" fill="black"/>
</svg>
